<svg xmlns="http://www.w3.org/2000/svg" viewBox="0 0 60 40">
  <circle cx="30" cy="20" r="19" style="fill: #e6e6e6"/>
  <g>
    <path d="M57,28H9.22C7,28,4.8,27.92,2.6,28H2.5a1.5,1.5,0,0,0,0,3H50.28c2.2,0,4.42.08,6.62,0H57a1.5,1.5,0,0,0,0-3Z" style="fill: #8cc63f"/>
    <path d="M31.8,28.3a30.71,30.71,0,0,0-2.48-12.46c-1.57-3.8-3.79-7.6-7.25-10A10.19,10.19,0,0,0,11.84,5.2c-3.57,1.82-6,5.55-7.67,9.08A31.56,31.56,0,0,0,1,28.3c.06,1.92,3.07,1.93,3,0a21.47,21.47,0,0,1,.09-2.78A20.25,20.25,0,0,1,4.47,23,33.35,33.35,0,0,1,6.19,17.1c.3-.74.7-1.63,1.14-2.48A27.88,27.88,0,0,1,8.87,12c.12-.17.23-.34.35-.5l.23-.31c.15-.2-.12.14,0-.05.28-.37.59-.72.9-1.06s.59-.61.9-.9l.47-.4c.05,0,.29-.23.06-.06l.27-.2c.32-.22.65-.43,1-.62l.5-.26.23-.1c-.32.14.06,0,.1,0A8,8,0,0,1,15,7.24c.13,0,.54-.07.21,0,.22,0,.44,0,.67,0h1l.61,0c.07,0,.29,0,0,0l.36.06a8,8,0,0,1,1.06.3l.23.09c-.28-.11-.07,0,0,0l.56.28a10.13,10.13,0,0,1,1,.61l.22.16c.34.25-.14-.11.06.05s.39.32.57.49a15.07,15.07,0,0,1,1.76,1.9l0,.05.23.3.4.56c.28.41.54.83.79,1.26a29,29,0,0,1,1.39,2.65A28.46,28.46,0,0,1,28.8,28.3c-.06,1.93,2.94,1.93,3,0Z" style="fill: #8cc63f"/>
    <path d="M13.51,11.75h4.54c.29,0,1.32-.18,1.49.17a2.33,2.33,0,0,1,0,.79V25.24a3.79,3.79,0,0,1,0,.89c-.12.41-.86.25-1.21.25H15.43a9.18,9.18,0,0,1-1.89,0c-.35-.08-.28-.35-.28-.64v-13c0-.25-.13-1,.25-1,1-.08,1-1.58,0-1.5a1.82,1.82,0,0,0-1.75,1.91c0,.52,0,1,0,1.56V25.18c0,.31,0,.63,0,.95a1.87,1.87,0,0,0,2.1,1.75c1.77,0,3.53,0,5.29,0a1.82,1.82,0,0,0,1.9-1.77c0-.39,0-.79,0-1.18V13.43c0-.45,0-.91,0-1.36a1.8,1.8,0,0,0-1.8-1.82c-1.73-.07-3.48,0-5.22,0h-.52A.75.75,0,0,0,13.51,11.75Z" style="fill: #8cc63f"/>
    <path d="M16,7H46.61a1.5,1.5,0,0,0,0-3H16a1.5,1.5,0,0,0,0,3Z" style="fill: #8cc63f"/>
    <path d="M45,5.5a4,4,0,0,0,1.35,2.3c.84,1,1.66,1.89,2.45,2.88,0,0,.23.3.08.11s.08.11.09.12l.35.46.78,1.1c.55.82,1.08,1.66,1.56,2.52a28,28,0,0,1,2.54,5.85,29.27,29.27,0,0,1,1.3,8.66,1.5,1.5,0,0,0,3,0,32.79,32.79,0,0,0-3.63-14.88A41.53,41.53,0,0,0,49,6.29c-.34-.38-.68-.76-1-1.15,0-.06-.27-.34-.06-.07s0,0,0,0-.06-.11-.09-.14A1.33,1.33,0,0,1,48,5.5a1.5,1.5,0,0,0-3,0Z" style="fill: #8cc63f"/>
    <ellipse cx="18.63" cy="19.41" rx="0.56" ry="0.59" style="fill: gray;stroke: #8cc63f;stroke-miterlimit: 10;stroke-width: 0.5px"/>
    <path d="M28,5.5a3.59,3.59,0,0,0,1.36,2.14c.85.88,1.68,1.78,2.46,2.72.13.16.26.31.38.47l.22.28c.27.35.54.71.79,1.07.54.76,1,1.54,1.51,2.34a27,27,0,0,1,2.61,5.79A28.24,28.24,0,0,1,38.67,29a1.5,1.5,0,0,0,3,0A31.66,31.66,0,0,0,38,14.25a36.83,36.83,0,0,0-6-8.13c-.33-.36-.68-.71-1-1.07-.11-.12-.21-.25-.32-.36s.27.4.13.17.15.55.16.64a1.5,1.5,0,0,0-3,0Z" style="fill: #8cc63f"/>
    <path d="M37,5.5a3.72,3.72,0,0,0,1.37,2.19c.84.89,1.66,1.79,2.44,2.74l.38.48.14.17c-.24-.29,0,0,0,.07.27.35.54.71.79,1.08.54.76,1,1.55,1.51,2.36a27.09,27.09,0,0,1,2.6,5.84A28.41,28.41,0,0,1,47.57,29a1.5,1.5,0,0,0,3,0,31.69,31.69,0,0,0-3.65-14.68A37.8,37.8,0,0,0,41,6.13L40,5.05c-.07-.08-.41-.49-.18-.2s.06.08,0,0,0,0,0,0A1.22,1.22,0,0,1,40,5.5a1.5,1.5,0,0,0-3,0Z" style="fill: #8cc63f"/>
  </g>
</svg>
