<svg xmlns="http://www.w3.org/2000/svg" viewBox="0 0 46.97 38">
  <title>greenhouse</title>
  <g>
    <circle cx="23.48" cy="19" r="19" style="fill: #e6e6e6"/>
    <path d="M46.48,25.5H2.38c-.6,0-1.22,0-1.82,0H.48a.5.5,0,0,0,0,1H44.59c.6,0,1.21,0,1.81,0h.08a.5.5,0,0,0,0-1Z" style="fill: #8cc63f"/>
    <path d="M24.32,24.6c.06-5.44-2.87-11.23-8-13.45a10.13,10.13,0,0,0-7.07-.32,12.41,12.41,0,0,0-5.94,4.51A15.3,15.3,0,0,0,.35,24.6a.5.5,0,0,0,1,0C1.29,19.55,4,14.17,8.74,12.08a9.11,9.11,0,0,1,6.44-.29,11.46,11.46,0,0,1,5.5,4.26,14.44,14.44,0,0,1,2.64,8.55.5.5,0,0,0,1,0Z" style="fill: #8cc63f"/>
    <path d="M9.83,14.86h2.79c.77,0,1.93-.21,2,.88.06,2,0,4.1,0,6.14v1.3a1.94,1.94,0,0,1-.06.72c-.23.53-.77.46-1.24.46H11.54c-.74,0-2.39.31-2.46-.77,0-.74,0-1.49,0-2.23V16c0-.52.07-1.07.75-1.12.32,0,.33-.52,0-.5a1.29,1.29,0,0,0-1.25,1.27c0,.28,0,.56,0,.85v6.94a1.41,1.41,0,0,0,.47,1.16,1.82,1.82,0,0,0,1.27.28c1.14,0,2.29,0,3.44,0a1.28,1.28,0,0,0,1.31-1.05,4.56,4.56,0,0,0,0-.74v-7a1.82,1.82,0,0,0-.24-1.17,1.56,1.56,0,0,0-1.42-.52H9.83A.25.25,0,0,0,9.83,14.86Z" style="fill: #8cc63f"/>
    <path d="M12.64,11.35h27a.5.5,0,0,0,0-1h-27a.5.5,0,0,0,0,1Z" style="fill: #8cc63f"/>
    <path d="M23.33,10.82c0,.1-.09,0,.14,0a2.56,2.56,0,0,1,.66.22,9.1,9.1,0,0,1,2.12,1.41A15.45,15.45,0,0,1,30.73,19a17.25,17.25,0,0,1,1,5.82.25.25,0,0,0,.5,0A17,17,0,0,0,29,14.7,11.87,11.87,0,0,0,24,10.51c-.38-.14-1.17-.32-1.2.31,0,.32.49.32.5,0Z" style="fill: #8cc63f"/>
    <path d="M39.42,11c.06.5.62.91.95,1.25a20.18,20.18,0,0,1,2.06,2.46A17,17,0,0,1,45.6,24.5a.5.5,0,0,0,1,0,18,18,0,0,0-3-9.88,23,23,0,0,0-2.18-2.74c-.25-.27-.51-.53-.77-.79a1.9,1.9,0,0,0-.24-.25c-.09-.08,0-.07,0,.16-.07-.63-1.07-.64-1,0Z" style="fill: #8cc63f"/>
    <path d="M31.55,10.82c0,.23-.2.08.1.18a2.85,2.85,0,0,1,.64.29,10.25,10.25,0,0,1,2,1.45,16,16,0,0,1,4.22,6.41,17.39,17.39,0,0,1,1,5.67.25.25,0,0,0,.5,0,17.17,17.17,0,0,0-3.09-9.9,12.78,12.78,0,0,0-4.62-4.24c-.31-.14-1.13-.47-1.16.14,0,.32.48.32.5,0Z" style="fill: #8cc63f"/>
    <circle cx="13.48" cy="19.5" r="0.5" style="fill: gray;stroke: #8cc63f;stroke-miterlimit: 10"/>
  </g>
</svg>
