<svg xmlns="http://www.w3.org/2000/svg" viewBox="0 0 38 38.54">
  <title>plant</title>
  <g>
    <circle cx="19" cy="19" r="19" style="fill: #e6e6e6"/>
    <path d="M9.64,22.14H28.48c.95,0,1.34,1.31.9,2.8L25.89,37A1.49,1.49,0,0,1,24.57,38h-11A1.48,1.48,0,0,1,12.23,37l-3.49-12C8.3,23.45,8.69,22.14,9.64,22.14Z" style="fill: none;stroke: #8cc63f;stroke-miterlimit: 10"/>
    <path d="M16.73,21.54a4.57,4.57,0,0,1,.93-2.73,11.62,11.62,0,0,0,1.54-2,4.08,4.08,0,0,0,.3-2.38,4.5,4.5,0,0,0-1.13-2.18,5,5,0,0,1-1.24-2.42,4.65,4.65,0,0,1,.33-2.68A12.1,12.1,0,0,1,19.06,5a4.06,4.06,0,0,0,.83-2.44,4.2,4.2,0,0,1-.73,2.52,11.55,11.55,0,0,0-1.47,2.15,4.31,4.31,0,0,0-.19,2.51,4.48,4.48,0,0,0,1.25,2.16,5.12,5.12,0,0,1,1.36,2.4,4.81,4.81,0,0,1-.22,2.8,12.17,12.17,0,0,1-1.52,2.24,3.61,3.61,0,0,0-.64,2.22Z" style="fill: #8cc63f"/>
    <path d="M17.55,19.51a7.11,7.11,0,0,1-2.83,0,7.85,7.85,0,0,1-2.82-1.27c-1.56-1-3-1.86-2.83-2.56.22-1.09,3.32-2.24,5.65-1.27a5.15,5.15,0,0,1,2.83,3.83,4.82,4.82,0,0,1,0,1.27" style="fill: none;stroke: #8cc63f;stroke-miterlimit: 10;stroke-width: 0.75px"/>
    <path d="M20,15.78a5.53,5.53,0,0,0,2,1.13,6.37,6.37,0,0,0,2.53.17c1.51-.11,2.88-.21,3.08-.79.3-.91-1.38-3-3.43-3.22a4.52,4.52,0,0,0-3.62,1.75,3.91,3.91,0,0,0-.54,1" style="fill: none;stroke: #8cc63f;stroke-miterlimit: 10;stroke-width: 0.75px"/>
    <path d="M17.07,9.32a4.6,4.6,0,0,1-1.44.58,4.75,4.75,0,0,1-1.68,0c-1-.12-1.85-.23-1.9-.57-.08-.54,1.3-1.69,2.66-1.73a2.51,2.51,0,0,1,2.13,1.14,2,2,0,0,1,.23.57" style="fill: none;stroke: #8cc63f;stroke-miterlimit: 10;stroke-width: 0.5px"/>
    <path d="M17.24,9.46a4.58,4.58,0,0,0,1.45.58,4.68,4.68,0,0,0,1.67,0c1-.12,1.85-.22,1.9-.56.08-.54-1.29-1.69-2.66-1.73a2.51,2.51,0,0,0-2.13,1.14,2.32,2.32,0,0,0-.23.57" style="fill: none;stroke: #8cc63f;stroke-miterlimit: 10;stroke-width: 0.5px"/>
    <line x1="9.06" y1="26.04" x2="29.06" y2="26.04" style="fill: none;stroke: #8cc63f;stroke-miterlimit: 10"/>
  </g>
</svg>
