<svg xmlns="http://www.w3.org/2000/svg" viewBox="0 0 60 40"><circle cx="30" cy="20" r="19" fill="#e6e6e6"/><path d="M57 29.5H9.22c-2.2 0-4.42-.08-6.62 0h-.1a1.5 1.5 0 000 3h47.78c2.2 0 4.42.08 6.62 0h.1a1.5 1.5 0 000-3z" fill="#8cc63f"/><path d="M31.8 29.8a30.71 30.71 0 00-2.48-12.46c-1.57-3.8-3.79-7.6-7.25-10a10.19 10.19 0 00-10.23-.64c-3.57 1.82-6 5.55-7.67 9.08A31.56 31.56 0 001 29.8c.06 1.92 3.07 1.93 3 0a21.47 21.47 0 01.1-2.8 20.25 20.25 0 01.37-2.56 33.35 33.35 0 011.72-5.84c.3-.74.7-1.63 1.14-2.48a27.88 27.88 0 011.54-2.58c.12-.17.23-.34.35-.5l.23-.31c.15-.2-.12.14 0-.05.28-.37.59-.72.9-1.06s.59-.61.9-.9l.47-.4c.05 0 .29-.23.06-.06l.27-.2c.32-.22.65-.43 1-.62l.5-.26.23-.1c-.32.14.06 0 .1 0A8 8 0 0115 8.74c.13 0 .54-.07.21 0h2.28c.07 0 .29 0 0 0l.36.06a8 8 0 011.06.3l.23.09c-.28-.11-.07 0 0 0l.56.28a10.13 10.13 0 011 .61l.22.16c.34.25-.14-.11.06.05s.39.32.57.49a15.07 15.07 0 011.76 1.9v.05l.23.3.4.56c.28.41.54.83.79 1.26a29 29 0 011.39 2.65 28.46 28.46 0 012.68 12.3c-.06 1.93 2.94 1.93 3 0z" fill="#8cc63f"/><path d="M13.51 13.25h4.54c.29 0 1.32-.18 1.49.17a2.33 2.33 0 010 .79v12.53a3.79 3.79 0 010 .89c-.12.41-.86.25-1.21.25h-2.9a9.18 9.18 0 01-1.89 0c-.35-.08-.28-.35-.28-.64v-13c0-.25-.13-1 .25-1 1-.08 1-1.58 0-1.5a1.82 1.82 0 00-1.75 1.91v13.98a1.87 1.87 0 002.1 1.75h5.29a1.82 1.82 0 001.9-1.77V14.93v-1.36a1.8 1.8 0 00-1.8-1.82c-1.73-.07-3.48 0-5.22 0h-.52a.75.75 0 000 1.5zM16 8.5h30.61a1.5 1.5 0 000-3H16a1.5 1.5 0 000 3z" fill="#8cc63f"/><path d="M45 7a4 4 0 001.35 2.3c.84.95 1.66 1.89 2.45 2.88 0 0 .23.3.08.11s.08.11.09.12l.35.46.78 1.13c.55.82 1.08 1.66 1.56 2.52a28 28 0 012.54 5.85A29.27 29.27 0 0155.5 31a1.5 1.5 0 003 0 32.79 32.79 0 00-3.63-14.88A41.53 41.53 0 0049 7.79c-.34-.38-.68-.76-1-1.15 0-.06-.27-.34-.06-.07s-.06-.11-.09-.14A1.33 1.33 0 0148 7a1.5 1.5 0 00-3 0z" fill="#8cc63f"/><ellipse cx="18.63" cy="20.91" rx=".56" ry=".59" fill="gray" stroke="#8cc63f" stroke-miterlimit="10" stroke-width=".5"/><path d="M28 7a3.59 3.59 0 001.36 2.14c.85.88 1.68 1.78 2.46 2.72.13.16.26.31.38.47l.22.28c.27.35.54.71.79 1.07.54.76 1 1.54 1.51 2.34a27 27 0 012.61 5.79 28.24 28.24 0 011.34 8.64 1.5 1.5 0 003 0A31.66 31.66 0 0038 15.75a36.83 36.83 0 00-6-8.13c-.33-.36-.68-.71-1-1.07-.11-.12-.21-.25-.32-.36s.27.4.13.17.19.55.19.64a1.5 1.5 0 00-3 0zM37 7a3.72 3.72 0 001.37 2.19c.84.89 1.66 1.79 2.44 2.74l.38.48.14.17c-.24-.29 0 0 0 .07.27.35.54.71.79 1.08.54.76 1 1.55 1.51 2.36a27.09 27.09 0 012.6 5.84 28.41 28.41 0 011.3 8.52 1.5 1.5 0 003 0 31.69 31.69 0 00-3.65-14.68A37.8 37.8 0 0041 7.63l-1-1.08c-.07-.08-.41-.49-.18-.2s.06.08 0 0A1.22 1.22 0 0140 7a1.5 1.5 0 00-3 0z" fill="#8cc63f"/></svg>