<svg xmlns="http://www.w3.org/2000/svg" viewBox="0 0 36 38"><circle cx="18" cy="20.5" r="17.5" fill="#e6e6e6"/><path d="M8.58 25h18.84c.95 0 1.34 1 .9 2.11l-3.49 9.07a1.47 1.47 0 01-1.32.82h-11a1.47 1.47 0 01-1.32-.82l-3.51-9.07C7.24 26 7.63 25 8.58 25z" fill="none" stroke="#8cc63f" stroke-miterlimit="10" stroke-width="2"/><path d="M13.32 25a8.76 8.76 0 01.5-2.34A6.92 6.92 0 0115 20.6a25.56 25.56 0 002-2.2 3.76 3.76 0 00.51-2.21 4.3 4.3 0 00-1-2.39A7.12 7.12 0 0115 10.28a6.45 6.45 0 01.67-3.7A14.22 14.22 0 0117.94 4a5.07 5.07 0 001.24-3 5.35 5.35 0 01-.73 3.31 13.55 13.55 0 00-1.62 2.78 4.91 4.91 0 000 2.84 5.06 5.06 0 001.61 2.27 9.59 9.59 0 011.24 1.43 6 6 0 01.91 2 7.57 7.57 0 01.25 2.11 6.52 6.52 0 01-.4 2.22 8.16 8.16 0 01-1 1.91c-.36.53-.66.95-.85 1.3a2.8 2.8 0 00-.27 1.83z" fill="#8cc63f"/><path d="M17.89 16.81A8.94 8.94 0 0115 19.19a8.25 8.25 0 01-3.76.82c-2.24.13-4.24.24-4.64-.73-.55-1.52 1.77-5.54 4.81-6.32s5.45 2.14 5.57 2.3a6.7 6.7 0 01.91 1.55M19.07 15.07A8 8 0 0021.9 17a7.64 7.64 0 003.56.36c2.12-.12 4-.23 4.29-1.16.39-1.45-2.07-4.9-4.95-5.3s-4.91 2.53-5 2.69a6.07 6.07 0 00-.72 1.52" fill="none" stroke="#8cc63f" stroke-miterlimit="10" stroke-width="2"/><path d="M16 9.74a8.86 8.86 0 01-2.49 1.06 8.23 8.23 0 01-2.82.15c-1.62-.1-3.1-.2-3.15-.74-.09-.86 2.34-2.82 4.64-3a3.77 3.77 0 013.49 1.65 2.79 2.79 0 01.33.9M16.55 6.86a5.59 5.59 0 001.9 1.08 5.19 5.19 0 002.27.16c1.33-.1 2.53-.19 2.63-.74.16-.87-1.6-2.87-3.44-3.07a3.34 3.34 0 00-3 1.66 3.67 3.67 0 00-.36.91" fill="none" stroke="#8cc63f" stroke-miterlimit="10"/><path d="M18.47 3.58a2.3 2.3 0 01-1.09.53A2.69 2.69 0 0116 3.92c-.8-.26-1.52-.49-1.61-.91a1.91 1.91 0 011.94-1.78c1.12.11 1.83 1.55 1.87 1.63a3.66 3.66 0 01.25.72" fill="none" stroke="#8cc63f" stroke-miterlimit="10" stroke-width=".75"/></svg>